<svg xmlns="http://www.w3.org/2000/svg" xmlns:xlink="http://www.w3.org/1999/xlink" width="500" zoomAndPan="magnify" viewBox="0 0 375 374.999991" height="500" preserveAspectRatio="xMidYMid meet" version="1.0"><defs><g/></defs><rect x="-37.5" width="450" fill="#ffffff" y="-37.499999" height="449.999989" fill-opacity="1"/><rect x="-37.5" width="450" fill="#000000" y="-37.499999" height="449.999989" fill-opacity="1"/><rect x="-37.5" width="450" fill="#ffffff" y="-37.499999" height="449.999989" fill-opacity="1"/><rect x="-37.5" width="450" fill="#000000" y="-37.499999" height="449.999989" fill-opacity="1"/><g fill="#ffffff" fill-opacity="1"><g transform="translate(160.52144, 214.095293)"><g><path d="M 22.398438 0.800781 C 32.597656 0.800781 40.898438 -5.300781 40.898438 -15.800781 C 40.898438 -36.199219 11.699219 -31.199219 11.699219 -45.496094 C 11.699219 -51.496094 16.597656 -54.398438 22.199219 -54.398438 C 26.796875 -54.398438 30.597656 -52.496094 32.996094 -49.097656 L 37.996094 -53.296875 C 34.699219 -57.496094 28.898438 -60.796875 22 -60.796875 C 12.800781 -60.796875 5.300781 -54.796875 5.300781 -44.996094 C 5.300781 -25.699219 34.496094 -30.5 34.496094 -15.597656 C 34.496094 -9.199219 29.199219 -5.601562 22.5 -5.601562 C 15.699219 -5.601562 10.800781 -9.300781 8.699219 -14.800781 L 2.898438 -11.398438 C 6 -4 13.5 0.800781 22.398438 0.800781 Z M 22.398438 0.800781 "/></g></g></g><g fill="#ffffff" fill-opacity="1"><g transform="translate(215.206663, 206.182538)"><g><path d="M 1.699219 -22.746094 C 2.101562 -33.117188 -3.773438 -41.796875 -14.449219 -42.210938 C -35.191406 -43.015625 -31.261719 -13.128906 -45.800781 -13.695312 C -51.902344 -13.929688 -54.65625 -19.027344 -54.4375 -24.722656 C -54.253906 -29.398438 -52.171875 -33.1875 -48.621094 -35.492188 L -52.695312 -40.742188 C -57.09375 -37.554688 -60.679688 -31.789062 -60.953125 -24.769531 C -61.316406 -15.417969 -55.511719 -7.554688 -45.546875 -7.167969 C -25.921875 -6.402344 -29.648438 -36.285156 -14.5 -35.695312 C -7.992188 -35.441406 -4.539062 -29.910156 -4.804688 -23.097656 C -5.074219 -16.183594 -9.03125 -11.347656 -14.703125 -9.429688 L -11.476562 -3.398438 C -3.832031 -6.257812 1.347656 -13.695312 1.699219 -22.746094 Z M 1.699219 -22.746094 "/></g></g></g><g fill="#ffffff" fill-opacity="1"><g transform="translate(169.287488, 221.170491)"><g><path d="M 9.421875 0 L 17.148438 0 L 17.148438 -72.464844 L 9.421875 -72.464844 Z M 9.421875 0 "/></g></g></g></svg>